Coordinates
version=1
nRows=13
nColumns=40
inDegrees=yes

Units are S.I. units (second, meters, Newtons, ...)
Angles are in degrees.

endheader
time	pelvis_tilt	pelvis_list	pelvis_rotation	pelvis_tx	pelvis_ty	pelvis_tz	hip_flexion_r	hip_adduction_r	hip_rotation_r	knee_angle_r	knee_angle_r_beta	ankle_angle_r	subtalar_angle_r	mtp_angle_r	hip_flexion_l	hip_adduction_l	hip_rotation_l	knee_angle_l	knee_angle_l_beta	ankle_angle_l	subtalar_angle_l	mtp_angle_l	lumbar_extension	lumbar_bending	lumbar_rotation	arm_flex_r	arm_add_r	arm_rot_r	elbow_flex_r	pro_sup_r	wrist_flex_r	wrist_dev_r	arm_flex_l	arm_add_l	arm_rot_l	elbow_flex_l	pro_sup_l	wrist_flex_l	wrist_dev_l
     37.70250000	     -4.83607051	     -4.60171043	      9.21635953	      0.91934152	      0.91669292	      0.49564930	      0.58739859	      2.75327885	    -17.85434903	     17.36553984	     17.36553984	     19.57659095	     -2.35980872	     -1.69840062	     29.14923513	     -4.94540475	      5.38487649	     25.33708113	     25.33708113	      4.03162370	    -11.22610072	      1.49861113	     -8.83808578	      2.94410524	      4.82661166	     60.79547938	    -19.06019178	     -6.46593530	     66.37474561	     44.81644166	      0.00000000	      0.00000000	    -11.04195217	    -10.81828890	     14.79054931	     29.69395511	     44.37208523	      0.00000000	      0.00000000
     37.72342857	     -4.96770936	     -4.60632125	      8.70722447	      0.91984823	      0.91686237	      0.49107710	      0.22587254	      2.39758759	    -17.52434943	     17.34391969	     17.34391969	     19.43023731	     -2.02364201	     -1.68026062	     29.06728078	     -4.78125005	      5.28447397	     26.08669002	     26.08669002	      4.68727402	    -11.85048266	      1.39972401	     -8.86330756	      3.00841859	      4.95729303	     60.12000845	    -18.78287138	     -6.39953490	     65.89752888	     44.83003157	      0.00000000	      0.00000000	    -10.65046651	    -11.11998122	     14.67925112	     29.79429845	     44.39897273	      0.00000000	      0.00000000
     37.74435714	     -5.14197835	     -4.63292249	      8.20840399	      0.92026390	      0.91698676	      0.48627937	     -0.08144648	      1.93762581	    -17.71663849	     17.35757996	     17.35757996	     19.27348280	     -0.86634274	     -1.94900173	     29.05920088	     -4.53512190	      5.40251197	     26.91176691	     26.91176691	      5.81968094	    -12.68408901	      2.89089138	     -8.76695936	      3.07654413	      5.28015753	     59.78797379	    -18.72686357	     -6.85483875	     63.36643683	     44.95235945	      0.00000000	      0.00000000	    -10.13718544	    -11.36018002	     14.27939856	     29.99446419	     44.50245160	      0.00000000	      0.00000000
     37.76528571	     -5.27335676	     -4.66517459	      7.68243453	      0.92076044	      0.91719064	      0.48159131	     -0.36658047	      1.56475119	    -17.40822823	     17.43687979	     17.43687979	     19.07935144	     -0.51606398	     -1.95718374	     28.87951878	     -4.41879806	      5.14085604	     27.47644356	     27.47644356	      6.46367668	    -13.17016796	      2.89003673	     -8.78983916	      3.18588563	      5.24883687	     58.78870202	    -18.35739488	     -6.81397666	     62.66289190	     44.97340864	      0.00000000	      0.00000000	     -9.74977856	    -11.64413454	     14.16427086	     30.08723829	     44.53081872	      0.00000000	      0.00000000
     37.78621429	     -5.45283233	     -4.66919538	      7.13476496	      0.92115822	      0.91739486	      0.47677400	     -0.51025909	      1.01216318	    -17.53660673	     17.72096113	     17.72096113	     18.89223696	      0.56755393	     -2.33896042	     28.72691671	     -4.25200893	      4.87130353	     28.03085991	     28.03085991	      7.53892388	    -13.45604859	      4.09071854	     -8.64804179	      3.25421522	      5.47575224	     58.13655442	    -18.09988238	     -7.40382012	     59.78215985	     45.10882111	      0.00000000	      0.00000000	     -9.14462299	    -11.89245681	     13.78774849	     30.28344923	     44.62743741	      0.00000000	      0.00000000
     37.80714286	     -5.56101819	     -4.71208815	      6.61646650	      0.92171239	      0.91775450	      0.47205558	     -0.72245514	      0.61370483	    -17.20002214	     17.94585779	     17.94585779	     18.60509821	      0.84756626	     -2.37224591	     28.39433282	     -4.16346435	      4.53071279	     28.35660416	     28.35660416	      8.16271673	    -13.77783840	      4.09668417	     -8.67615187	      3.32639131	      5.27028076	     56.71419319	    -17.64406967	     -7.38019929	     58.92595952	     45.13329630	      0.00000000	      0.00000000	     -8.75283101	    -12.16824994	     13.67364737	     30.37071786	     44.65551526	      0.00000000	      0.00000000
     37.82807143	     -5.61791994	     -4.80229876	      6.08680368	      0.92229822	      0.91825392	      0.46741120	     -0.87594357	      0.22873417	    -16.86861346	     18.36751602	     18.36751602	     18.30515760	      1.17076471	     -2.47343862	     27.95419250	     -4.14501825	      4.18823791	     28.56939441	     28.56939441	      8.70709515	    -14.02054616	      4.09045015	     -8.69142235	      3.51774723	      5.18310831	     55.06227968	    -17.21174828	     -7.35183525	     57.93119064	     45.16045032	      0.00000000	      0.00000000	     -8.15336735	    -12.44551260	     13.55667005	     30.54814966	     44.68517275	      0.00000000	      0.00000000
     37.84900000	     -5.85279235	     -4.69369033	      5.49495539	      0.92262651	      0.91859116	      0.46270796	     -0.50594692	     -0.57352173	    -16.74041756	     19.44523262	     19.44523262	     17.96480764	      1.69374409	     -3.17392219	     27.60026155	     -3.95916622	      3.54847360	     28.62933671	     28.62933671	      9.45735957	    -13.87751769	      4.51487223	     -8.48547004	      3.41044248	      5.46544498	     53.43596543	    -17.24503780	     -7.87727499	     55.32975897	     45.27279138	      0.00000000	      0.00000000	     -7.30445964	    -12.74377650	     13.26460511	     30.79784250	     44.75622610	      0.00000000	      0.00000000
     37.86992857	     -5.86829365	     -4.74832895	      5.00032720	      0.92315108	      0.91924311	      0.45805918	     -0.45756121	     -1.07803045	    -16.46849507	     20.22820662	     20.22820662	     16.88332040	      1.69079934	     -5.34399868	     27.13054998	     -3.91108031	      3.11082029	     28.90080906	     28.90080906	     10.68092413	    -13.66210406	      5.99801066	     -8.44030708	      3.54753864	      4.78758423	     52.49124293	    -15.77579407	     -9.28416575	     51.04298996	     45.49928826	      0.00000000	      0.00000000	     -6.76416461	    -12.87384667	     12.55478404	     30.53546433	     44.93467642	      0.00000000	      0.00000000
     37.89085714	     -5.92154242	     -4.75202469	      4.47668393	      0.92364274	      0.91992518	      0.45350662	     -0.00162637	     -1.72384044	    -16.04030167	     21.74141741	     21.74141741	     16.33375752	      1.47283359	     -5.88194005	     26.51700847	     -3.83889489	      2.55261353	     28.79199143	     28.79199143	     11.18793829	    -13.58856914	      5.86921134	     -8.41642787	      3.58832204	      4.65974261	     50.00291815	    -15.54614669	     -9.29664004	     49.83819229	     45.53178566	      0.00000000	      0.00000000	     -5.97133952	    -13.17764107	     12.32520028	     30.84391801	     44.98780705	      0.00000000	      0.00000000
     37.91178571	     -5.93629585	     -4.75276193	      3.96227505	      0.92404662	      0.92064046	      0.44901557	      0.70386340	     -2.42459381	    -15.56940272	     23.75360117	     23.75360117	     15.61156736	      0.94522465	     -6.73376873	     25.86039078	     -3.76655510	      1.97054856	     28.66069427	     28.66069427	     11.68603181	    -13.46113202	      5.72770302	     -8.40956168	      3.65803211	      4.57020249	     47.35048281	    -15.35717963	     -9.35862170	     48.35446561	     45.57575325	      0.00000000	      0.00000000	     -5.00635347	    -13.45397867	     12.10926341	     31.10355429	     45.04111814	      0.00000000	      0.00000000
     37.93271429	     -5.93702048	     -4.84505272	      3.45012936	      0.92433262	      0.92129537	      0.44476349	      1.50537482	     -2.91761514	    -14.78925463	     25.67460728	     25.67460728	     12.99657866	     -1.08654487	    -12.20227297	     25.24060703	     -3.80525008	      1.41340198	     28.58960319	     28.58960319	     12.30809655	    -13.23457354	      5.71483522	     -8.36774899	      3.82052947	      4.44699163	     45.06026692	    -14.87544458	    -10.38727110	     45.34432969	     45.73108384	      0.00000000	      0.00000000	     -3.57517010	    -13.43020906	     11.49376381	     30.27756617	     45.21938081	      0.00000000	      0.00000000
     37.95364286	     -5.88788379	     -4.81028380	      2.94561499	      0.92452377	      0.92195444	      0.44048170	      2.77654783	     -3.71932751	    -14.21108630	     28.75609925	     28.75609925	     11.99023292	     -2.30592974	    -12.94838661	     24.49917102	     -3.68671806	      0.84092648	     28.39190591	     28.39190591	     12.78676633	    -13.12192303	      5.53530093	     -8.42534036	      3.86629851	      4.22590169	     42.02648214	    -14.60079805	    -10.36317777	     43.90751290	     45.76587269	      0.00000000	      0.00000000	     -2.45991897	    -13.67318909	     11.31521017	     30.67534029	     45.26866170	      0.00000000	      0.00000000
